<?xml version="1.0" encoding="utf-8"?>
<!-- Generator: Adobe Illustrator 16.0.0, SVG Export Plug-In . SVG Version: 6.00 Build 0)  -->
<!DOCTYPE svg PUBLIC "-//W3C//DTD SVG 1.1//EN" "http://www.w3.org/Graphics/SVG/1.1/DTD/svg11.dtd">
<svg version="1.1" id="Layer_1" xmlns="http://www.w3.org/2000/svg" xmlns:xlink="http://www.w3.org/1999/xlink" x="0px" y="0px"
	 width="37.625px" height="30.148px" viewBox="0 0 37.625 30.148" enable-background="new 0 0 37.625 30.148" xml:space="preserve">
<path d="M24.431,23.255l-0.393-2.975l1.487-0.196c6.859-0.905,9.099-2.778,9.099-3.321c0-1.086-5.541-3.743-15.812-3.743
	C8.541,13.02,3,15.676,3,16.763c0,0.223,0.769,1.345,4.319,2.364l1.442,0.414l-0.827,2.884L6.492,22.01
	C1.126,20.471,0,18.307,0,16.763c0-4.633,9.751-6.743,18.812-6.743s18.812,2.11,18.812,6.743c0,4.288-8.187,5.831-11.706,6.296
	L24.431,23.255z"/>
<polygon points="26.84,26.04 21.717,23.12 24.942,17.319 "/>
<path d="M18.812,30.148c-0.276,0-0.5-0.224-0.5-0.5V0.5c0-0.276,0.224-0.5,0.5-0.5s0.5,0.224,0.5,0.5v29.148
	C19.312,29.924,19.089,30.148,18.812,30.148z"/>
</svg>
