<?xml version="1.0" encoding="utf-8"?>
<!-- Generator: Adobe Illustrator 16.0.0, SVG Export Plug-In . SVG Version: 6.00 Build 0)  -->
<!DOCTYPE svg PUBLIC "-//W3C//DTD SVG 1.1//EN" "http://www.w3.org/Graphics/SVG/1.1/DTD/svg11.dtd">
<svg version="1.1" id="Layer_1" xmlns="http://www.w3.org/2000/svg" xmlns:xlink="http://www.w3.org/1999/xlink" x="0px" y="0px"
	 width="12px" height="12px" viewBox="0 0 12 12" enable-background="new 0 0 12 12" xml:space="preserve">
<path fill-rule="evenodd" clip-rule="evenodd" fill="#ED1F24" d="M6,0C2.687,0,0,2.687,0,6s2.687,6,6,6s6-2.687,6-6S9.313,0,6,0z
	 M5.992,1.542c0.43,0,0.861,0.347,0.861,0.944c0,0.389-0.403,3.68-0.583,4.901C6.228,7.666,6.02,7.819,5.811,7.819
	c-0.069,0-0.139-0.139-0.167-0.306c-0.153-0.93-0.569-4.332-0.569-5.041C5.075,1.89,5.492,1.542,5.992,1.542z M5.978,10.61
	c-0.514,0-1.055-0.444-1.055-1.069c0-0.583,0.472-1.014,1-1.014c0.583,0,1.041,0.444,1.041,1.014S6.533,10.61,5.978,10.61z"/>
</svg>
