<?xml version="1.0" encoding="utf-8"?>
<!-- Generator: Adobe Illustrator 16.0.0, SVG Export Plug-In . SVG Version: 6.00 Build 0)  -->
<!DOCTYPE svg PUBLIC "-//W3C//DTD SVG 1.1//EN" "http://www.w3.org/Graphics/SVG/1.1/DTD/svg11.dtd">
<svg version="1.1" id="Layer_1" xmlns="http://www.w3.org/2000/svg" xmlns:xlink="http://www.w3.org/1999/xlink" x="0px" y="0px"
	 width="26.842px" height="18.2px" viewBox="0 0 26.842 18.2" enable-background="new 0 0 26.842 18.2" xml:space="preserve">
<g>
	<path fill="#141215" d="M11.49,4.832c-2.783,0-5.047,2.264-5.047,5.047s2.264,5.047,5.047,5.047s5.047-2.264,5.047-5.047
		S14.272,4.832,11.49,4.832z"/>
	<path fill="#141215" d="M25.342,0H1.5C0.671,0,0,0.672,0,1.5v15.2c0,0.828,0.671,1.5,1.5,1.5h23.842c0.829,0,1.5-0.672,1.5-1.5V1.5
		C26.842,0.672,26.17,0,25.342,0z M11.49,16.926c-3.886,0-7.047-3.161-7.047-7.047s3.161-7.047,7.047-7.047s7.047,3.161,7.047,7.047
		S15.375,16.926,11.49,16.926z M24.978,3.467c0,0.276-0.224,0.5-0.5,0.5h-3.336c-0.276,0-0.5-0.224-0.5-0.5v-1.15
		c0-0.276,0.224-0.5,0.5-0.5h3.336c0.276,0,0.5,0.224,0.5,0.5V3.467z"/>
</g>
</svg>
