<?xml version="1.0" encoding="utf-8"?>
<!-- Generator: Adobe Illustrator 16.0.0, SVG Export Plug-In . SVG Version: 6.00 Build 0)  -->
<!DOCTYPE svg PUBLIC "-//W3C//DTD SVG 1.1//EN" "http://www.w3.org/Graphics/SVG/1.1/DTD/svg11.dtd">
<svg version="1.1" id="Layer_1" xmlns="http://www.w3.org/2000/svg" xmlns:xlink="http://www.w3.org/1999/xlink" x="0px" y="0px"
	 width="427px" height="306px" viewBox="0 0 427 306" enable-background="new 0 0 427 306" xml:space="preserve">
<path opacity="0.7" fill="#010101" enable-background="new    " d="M427,306c-44.406,0-86.271-15.609-117.884-43.951
	C276.798,233.074,259,194.347,259,153s17.798-80.074,50.116-109.049C340.729,15.609,382.594,0,427,0v46
	c-58.271,0-107.132,36.017-119.162,84H397v46h-89.162c12.03,47.983,60.892,84,119.162,84V306z M168,306
	c-44.406,0-86.271-15.609-117.884-43.951C17.798,233.074,0,194.347,0,153S17.798,72.926,50.116,43.951
	C81.729,15.609,123.594,0,168,0v46C100.729,46,46,94,46,153s54.729,107,122,107V306z"/>
</svg>
