<?xml version="1.0" encoding="utf-8"?>
<!-- Generator: Adobe Illustrator 16.0.0, SVG Export Plug-In . SVG Version: 6.00 Build 0)  -->
<!DOCTYPE svg PUBLIC "-//W3C//DTD SVG 1.1//EN" "http://www.w3.org/Graphics/SVG/1.1/DTD/svg11.dtd">
<svg version="1.1" id="Layer_4" xmlns="http://www.w3.org/2000/svg" xmlns:xlink="http://www.w3.org/1999/xlink" x="0px" y="0px"
	 width="17.277px" height="15.1px" viewBox="0 0 17.277 15.1" enable-background="new 0 0 17.277 15.1" xml:space="preserve">
<g>
	<path d="M10.511,15.1l-1.384-1.691c3.504-2.854,5.255-5.239,5.255-7.153c0-0.222-0.018-0.495-0.052-0.82
		c-0.306,0.138-0.594,0.235-0.866,0.295C13.192,5.79,12.938,5.82,12.7,5.82c-0.799,0-1.447-0.265-1.949-0.795
		C10.248,4.496,9.999,3.822,9.999,3c0-0.804,0.303-1.504,0.907-2.104C11.511,0.3,12.229,0,13.064,0c1.141,0,2.127,0.466,2.963,1.396
		c0.835,0.933,1.252,2.134,1.252,3.603c0,0.957-0.196,1.961-0.59,3.013c-0.393,1.051-0.965,2.024-1.717,2.922
		C14.22,11.832,12.733,13.22,10.511,15.1z M1.385,15.1L0,13.408c3.504-2.854,5.255-5.238,5.255-7.152
		c0-0.222-0.018-0.495-0.052-0.82C4.896,5.573,4.606,5.671,4.332,5.731c-0.273,0.062-0.53,0.091-0.77,0.091
		c-0.803,0-1.453-0.266-1.948-0.796C1.118,4.497,0.871,3.823,0.871,3.002c0-0.804,0.3-1.504,0.897-2.104C2.367,0.3,3.086,0,3.923,0
		c1.145,0,2.136,0.466,2.974,1.396C7.735,2.328,8.153,3.53,8.153,4.999c0,0.957-0.197,1.961-0.59,3.013
		c-0.393,1.051-0.965,2.024-1.717,2.922C5.094,11.832,3.607,13.22,1.385,15.1z"/>
</g>
</svg>
