<?xml version="1.0" encoding="utf-8"?>
<!-- Generator: Adobe Illustrator 16.0.0, SVG Export Plug-In . SVG Version: 6.00 Build 0)  -->
<!DOCTYPE svg PUBLIC "-//W3C//DTD SVG 1.1//EN" "http://www.w3.org/Graphics/SVG/1.1/DTD/svg11.dtd">
<svg version="1.1" id="Layer_1" xmlns="http://www.w3.org/2000/svg" xmlns:xlink="http://www.w3.org/1999/xlink" x="0px" y="0px"
	 width="15.272px" height="15.032px" viewBox="0 0 15.272 15.032" enable-background="new 0 0 15.272 15.032" xml:space="preserve">
<rect x="0" fill="#0E0F0E" width="1.845" height="4.626"/>
<rect x="0" fill="#0E0F0E" width="4.626" height="1.845"/>
<rect x="2.023" y="-0.297" transform="matrix(0.7071 -0.7071 0.7071 0.7071 -1.2199 2.9455)" fill="#0E0F0E" width="1.844" height="6.485"/>
<rect x="10.646" fill="#0E0F0E" width="4.626" height="1.845"/>
<rect x="13.427" fill="#0E0F0E" width="1.845" height="4.626"/>
<rect x="11.406" y="-0.298" transform="matrix(0.7071 0.7071 -0.7071 0.7071 5.6932 -7.8545)" fill="#0E0F0E" width="1.844" height="6.485"/>
<rect x="13.427" y="10.405" fill="#0E0F0E" width="1.845" height="4.626"/>
<rect x="10.646" y="13.187" fill="#0E0F0E" width="4.626" height="1.845"/>
<rect x="11.405" y="8.844" transform="matrix(-0.7071 0.7071 -0.7071 -0.7071 29.5897 11.9164)" fill="#0E0F0E" width="1.844" height="6.485"/>
<rect y="13.187" fill="#0E0F0E" width="4.626" height="1.845"/>
<rect y="10.405" fill="#0E0F0E" width="1.845" height="4.626"/>
<rect x="2.023" y="8.844" transform="matrix(-0.707 -0.7072 0.7072 -0.707 -3.521 22.7145)" fill="#0E0F0E" width="1.844" height="6.485"/>
</svg>
