<?xml version="1.0" encoding="utf-8"?>
<!-- Generator: Adobe Illustrator 16.0.0, SVG Export Plug-In . SVG Version: 6.00 Build 0)  -->
<!DOCTYPE svg PUBLIC "-//W3C//DTD SVG 1.1//EN" "http://www.w3.org/Graphics/SVG/1.1/DTD/svg11.dtd">
<svg version="1.1" id="Layer_1" xmlns="http://www.w3.org/2000/svg" xmlns:xlink="http://www.w3.org/1999/xlink" x="0px" y="0px"
	 width="14.479px" height="14.479px" viewBox="0 0 14.479 14.479" enable-background="new 0 0 14.479 14.479" xml:space="preserve">
<path fill="#4D4D4D" d="M13.111,0H1.368C0.615,0,0,0.616,0,1.368v11.743c0,0.752,0.615,1.368,1.368,1.368h11.743
	c0.752,0,1.368-0.616,1.368-1.368V1.368C14.479,0.616,13.863,0,13.111,0z M12.009,7.806h-1.652v5.998H7.881V7.806H6.642V5.74h1.239
	V4.5c0-1.687,0.696-2.689,2.684-2.689h1.653v2.067h-1.033c-0.774,0-0.825,0.29-0.825,0.828L10.356,5.74h1.871L12.009,7.806z"/>
</svg>
