<?xml version="1.0" encoding="utf-8"?>
<!-- Generator: Adobe Illustrator 16.0.0, SVG Export Plug-In . SVG Version: 6.00 Build 0)  -->
<!DOCTYPE svg PUBLIC "-//W3C//DTD SVG 1.1//EN" "http://www.w3.org/Graphics/SVG/1.1/DTD/svg11.dtd">
<svg version="1.1" id="Layer_1" xmlns="http://www.w3.org/2000/svg" xmlns:xlink="http://www.w3.org/1999/xlink" x="0px" y="0px"
	 width="18.669px" height="18.668px" viewBox="0 0 18.669 18.668" enable-background="new 0 0 18.669 18.668" xml:space="preserve">
<g>
	<path fill="#BB2F2C" d="M5.129,14.087c-0.503-0.486-0.896-1.082-0.896-1.818c0-0.434,0.137-0.854,0.333-1.227
		c-0.2,0.015-0.401,0.02-0.61,0.02c-1.706,0-3.076-0.707-3.955-1.793v5.907c1.091-0.653,2.455-1.077,3.986-1.077
		C4.387,14.098,4.751,14.087,5.129,14.087z"/>
	<path fill="#BB2F2C" d="M4.908,10.392c0.024,0,0.047,0,0.07,0c1.657,0,2.754-1.743,2.468-3.937C7.152,4.23,5.54,2.445,3.85,2.396
		c-1.695-0.052-2.828,1.65-2.539,3.877C1.605,8.496,3.214,10.34,4.908,10.392z"/>
	<path fill="#BB2F2C" d="M18.669,4.744V1.764c0-0.97-0.795-1.764-1.764-1.764H1.765C0.794,0,0,0.794,0,1.764v1.838
		c1.074-1.274,2.838-2.139,4.672-2.139h6.573L9.774,2.527H7.688c1.386,0.534,2.12,2.145,2.12,3.799c0,1.39-0.767,2.583-1.857,3.434
		c-1.06,0.827-1.26,1.177-1.26,1.88c0,0.603,1.136,1.625,1.729,2.047c1.736,1.227,2.301,2.368,2.301,4.272
		c0,0.238-0.04,0.475-0.086,0.71h6.27c0.969,0,1.764-0.794,1.764-1.764V6.19h-2.807v3.208h-1.445V6.19h-3.208V4.744h3.208V1.536
		h1.445v3.208H18.669z"/>
	<path fill="#BB2F2C" d="M8.95,17.549c-0.278-1.085-1.262-1.624-2.628-2.578c-0.504-0.16-1.05-0.254-1.641-0.262
		c-2.148-0.024-4.092,1.113-4.626,2.612C0.022,17.187,0,17.048,0,16.904c0,0.97,0.794,1.764,1.765,1.764h7.229
		c0.016-0.146,0.037-0.289,0.037-0.44C9.03,17.997,9.002,17.771,8.95,17.549z"/>
</g>
</svg>
