<?xml version="1.0" encoding="utf-8"?>
<!-- Generator: Adobe Illustrator 16.0.0, SVG Export Plug-In . SVG Version: 6.00 Build 0)  -->
<!DOCTYPE svg PUBLIC "-//W3C//DTD SVG 1.1//EN" "http://www.w3.org/Graphics/SVG/1.1/DTD/svg11.dtd">
<svg version="1.1" id="CATS" xmlns="http://www.w3.org/2000/svg" xmlns:xlink="http://www.w3.org/1999/xlink" x="0px" y="0px"
	 width="15.026px" height="15.027px" viewBox="0 0 15.026 15.027" enable-background="new 0 0 15.026 15.027" xml:space="preserve">
<g>
	<g>
		<path d="M7.514,0C3.364,0,0,3.364,0,7.514c0,4.149,3.364,7.513,7.514,7.513c4.149,0,7.512-3.364,7.512-7.513
			C15.026,3.364,11.663,0,7.514,0z M8.895,11.909c-0.421,0.167-0.605,0.115-0.857,0.201c-0.252,0.088-0.544,0.131-0.876,0.131
			c-0.512,0-0.908-0.125-1.193-0.374C5.684,11.618,5.44,11.3,5.44,10.917c0-0.149,0.011-0.303,0.033-0.458
			c0.021-0.156,0.055-0.585,0.101-0.782l0.734-1.714c0.046-0.179,0.086-0.348,0.118-0.509c0.033-0.16,0.048-0.178,0.048-0.311
			c0-0.238-0.151-0.404-0.25-0.498C6.126,6.553,5.708,6.506,5.43,6.506c-0.137,0-0.277,0.021-0.42,0.064
			C4.866,6.612,4.744,6.653,4.641,6.692L4.68,5.987C5.026,5.847,5.688,5.65,6.004,5.55C6.32,5.449,6.619,5.399,6.901,5.399
			c0.509,0,0.899,0.124,1.175,0.368C8.352,6.012,8.694,6.408,8.694,6.8c0,0.081-0.009,0.224-0.029,0.428
			C8.647,7.433,8.611,7.621,8.56,7.791l-0.73,1.708c-0.043,0.15-0.082,0.32-0.116,0.513c-0.034,0.191-0.051,0.589-0.051,0.688
			c0,0.248,0.056,0.416,0.167,0.506c0.11,0.089,0.226,0.235,0.498,0.235c0.369,0,0.347,0.062,0.709-0.108L8.895,11.909z M9.211,4.2
			C8.966,4.428,8.67,4.594,8.326,4.594c-0.346,0-0.643-0.166-0.889-0.394C7.189,3.971,7.065,3.67,7.065,3.346
			c0-0.325,0.124-0.627,0.371-0.858c0.247-0.229,0.543-0.37,0.889-0.37c0.345,0,0.641,0.116,0.886,0.345
			c0.246,0.23,0.368,0.558,0.368,0.883C9.579,3.67,9.457,3.971,9.211,4.2z"/>
	</g>
</g>
</svg>
