<?xml version="1.0" encoding="utf-8"?>
<!-- Generator: Adobe Illustrator 16.0.0, SVG Export Plug-In . SVG Version: 6.00 Build 0)  -->
<!DOCTYPE svg PUBLIC "-//W3C//DTD SVG 1.1//EN" "http://www.w3.org/Graphics/SVG/1.1/DTD/svg11.dtd">
<svg version="1.1" id="Layer_4" xmlns="http://www.w3.org/2000/svg" xmlns:xlink="http://www.w3.org/1999/xlink" x="0px" y="0px"
	 width="17.278px" height="15.1px" viewBox="0 0 17.278 15.1" enable-background="new 0 0 17.278 15.1" xml:space="preserve">
<g>
	<path d="M6.768,0l1.384,1.692C4.648,4.546,2.897,6.931,2.897,8.845c0,0.222,0.017,0.495,0.051,0.82
		C3.254,9.528,3.542,9.43,3.815,9.37C4.087,9.31,4.341,9.28,4.578,9.28c0.799,0,1.448,0.265,1.95,0.795
		C7.031,10.604,7.28,11.279,7.28,12.1c0,0.804-0.303,1.504-0.908,2.103C5.768,14.8,5.05,15.1,4.215,15.1
		c-1.141,0-2.127-0.466-2.963-1.397C0.417,12.771,0,11.57,0,10.101C0,9.144,0.197,8.14,0.59,7.088
		c0.393-1.051,0.965-2.024,1.717-2.922S4.546,1.88,6.768,0z M15.894,0l1.385,1.692c-3.504,2.854-5.255,5.238-5.255,7.152
		c0,0.222,0.017,0.495,0.051,0.82c0.308-0.137,0.598-0.235,0.872-0.295c0.273-0.061,0.53-0.09,0.769-0.09
		c0.803,0,1.453,0.265,1.948,0.795c0.496,0.529,0.743,1.204,0.743,2.024c0,0.804-0.299,1.504-0.897,2.103
		C14.911,14.8,14.193,15.1,13.356,15.1c-1.145,0-2.136-0.466-2.974-1.397s-1.256-2.132-1.256-3.602c0-0.957,0.197-1.961,0.59-3.013
		c0.393-1.051,0.965-2.024,1.717-2.922S13.672,1.88,15.894,0z"/>
</g>
</svg>
