<?xml version="1.0" encoding="utf-8"?>
<!-- Generator: Adobe Illustrator 16.0.0, SVG Export Plug-In . SVG Version: 6.00 Build 0)  -->
<!DOCTYPE svg PUBLIC "-//W3C//DTD SVG 1.1//EN" "http://www.w3.org/Graphics/SVG/1.1/DTD/svg11.dtd">
<svg version="1.1" id="Layer_1" xmlns="http://www.w3.org/2000/svg" xmlns:xlink="http://www.w3.org/1999/xlink" x="0px" y="0px"
	 width="25px" height="14px" viewBox="0 0 25 14" enable-background="new 0 0 25 14" xml:space="preserve">
<path fill="#7D563B" d="M16.582,4.526V3.409c0.704,0.092,1.296,0.214,1.564,0.374c0.302,0.179,0.433,0.514,0.545,0.887H25
	c0.006-1.088-0.546-2.394-1.028-2.893C22.091-0.168,12.5,0.004,12.5,0.004S2.909-0.168,1.028,1.776C0.546,2.275-0.006,3.581,0,4.669
	h6.308c0.114-0.373,0.244-0.708,0.545-0.887c0.269-0.159,0.861-0.281,1.565-0.374v1.118L6.705,6.244l-2.496,5.394v1.095v0.643
	C4.209,13.72,4.528,14,4.922,14H12.5h7.579c0.394,0,0.713-0.279,0.713-0.625v-0.643v-1.095l-2.496-5.394L16.582,4.526z M12.5,3.132
	c0,0,1.708,0.037,3.27,0.186l-0.556,1.049H12.5H9.786L9.23,3.318C10.792,3.169,12.5,3.132,12.5,3.132z M12.5,11.581
	c-1.849,0-3.348-1.314-3.348-2.936S10.65,5.708,12.5,5.708c1.85,0,3.349,1.315,3.349,2.937S14.349,11.581,12.5,11.581z"/>
</svg>
