<?xml version="1.0" encoding="utf-8"?>
<!-- Generator: Adobe Illustrator 16.0.0, SVG Export Plug-In . SVG Version: 6.00 Build 0)  -->
<!DOCTYPE svg PUBLIC "-//W3C//DTD SVG 1.1//EN" "http://www.w3.org/Graphics/SVG/1.1/DTD/svg11.dtd">
<svg version="1.1" id="Layer_1" xmlns="http://www.w3.org/2000/svg" xmlns:xlink="http://www.w3.org/1999/xlink" x="0px" y="0px"
	 width="18.669px" height="18.668px" viewBox="0 0 18.669 18.668" enable-background="new 0 0 18.669 18.668" xml:space="preserve">
<path fill="#CA2027" d="M16.904,0H1.764C0.793,0,0,0.794,0,1.764v15.14c0,0.97,0.793,1.764,1.764,1.764h15.141
	c0.97,0,1.765-0.794,1.765-1.764V1.764C18.669,0.794,17.874,0,16.904,0z M10.296,12.106c-0.773,0-1.499-0.417-1.748-0.892
	c0,0-0.415,1.647-0.503,1.965c-0.309,1.124-1.221,2.248-1.291,2.339c-0.049,0.065-0.158,0.044-0.169-0.04
	c-0.02-0.144-0.253-1.562,0.021-2.718c0.139-0.581,0.92-3.896,0.92-3.896S7.298,8.41,7.298,7.735c0-1.06,0.614-1.851,1.379-1.851
	c0.649,0,0.964,0.489,0.964,1.073c0,0.654-0.415,1.632-0.632,2.537c-0.179,0.759,0.38,1.377,1.13,1.377
	c1.354,0,2.266-1.74,2.266-3.802c0-1.566-1.055-2.74-2.975-2.74c-2.168,0-3.521,1.618-3.521,3.425c0,0.623,0.185,1.062,0.472,1.402
	c0.134,0.156,0.151,0.219,0.104,0.398c-0.035,0.132-0.113,0.449-0.146,0.575c-0.047,0.181-0.193,0.246-0.357,0.178
	C4.981,9.9,4.517,8.806,4.517,7.577c0-2.031,1.714-4.467,5.109-4.467c2.73,0,4.526,1.975,4.526,4.096
	C14.152,10.011,12.594,12.106,10.296,12.106z"/>
</svg>
