<?xml version="1.0" encoding="utf-8"?>
<!-- Generator: Adobe Illustrator 16.0.0, SVG Export Plug-In . SVG Version: 6.00 Build 0)  -->
<!DOCTYPE svg PUBLIC "-//W3C//DTD SVG 1.1//EN" "http://www.w3.org/Graphics/SVG/1.1/DTD/svg11.dtd">
<svg version="1.1" id="Layer_1" xmlns="http://www.w3.org/2000/svg" xmlns:xlink="http://www.w3.org/1999/xlink" x="0px" y="0px"
	 width="282.075px" height="95.456px" viewBox="0 0 282.075 95.456" enable-background="new 0 0 282.075 95.456"
	 xml:space="preserve">
<g>
	<path fill="#010101" d="M282.075,36h-71.946c-0.348,4.703-1.869,8.929-4.648,12.155l-0.653,0.714
		c-2.381,2.456-5.333,3.977-8.604,4.637c-0.066,4.529-0.779,8.912-2.032,13.076h87.883l-15-15.291L282.075,36z"/>
	<path fill="#010101" d="M86.675,56.146l-0.693-0.674C81.486,50.831,79.801,43.729,80.729,36H0l15,15.291L0,66.582h97.857
		c-0.599-2.014-1.075-4.079-1.406-6.193C92.779,60.039,89.415,58.659,86.675,56.146z"/>
	<path fill="#010101" d="M200.327,46.542l0.592-0.599c7.414-7.975,4.976-23.226-5.53-34.571
		c-10.822-11.687-26.154-14.889-34.25-7.151c-1.332,1.273-2.379,2.767-3.161,4.421c-4.068-1.065-8.357-1.591-12.785-1.474
		c-4.968,0.132-9.723,1.064-14.155,2.648c-0.753-1.154-1.658-2.198-2.716-3.109c-8.481-7.297-23.629-3.287-33.835,8.959
		c-9.907,11.887-11.56,27.248-3.744,34.818l0.62,0.566c2.793,2.403,6.311,3.572,10.136,3.632
		c1.758,23.325,21.898,41.397,45.962,40.757c24.624-0.654,44.061-20.679,43.734-44.802C194.692,50.249,197.85,48.91,200.327,46.542z
		 M146.187,68.886c-8.767,0.232-15.965-3.189-16.079-7.643c-0.116-4.453,6.898-8.251,15.663-8.483
		c8.51-0.226,15.592,2.996,16.059,7.308l0.018,0.333C161.964,64.854,154.953,68.652,146.187,68.886z"/>
</g>
</svg>
