<?xml version="1.0" encoding="utf-8"?>
<!-- Generator: Adobe Illustrator 16.0.0, SVG Export Plug-In . SVG Version: 6.00 Build 0)  -->
<!DOCTYPE svg PUBLIC "-//W3C//DTD SVG 1.1//EN" "http://www.w3.org/Graphics/SVG/1.1/DTD/svg11.dtd">
<svg version="1.1" id="Layer_1" xmlns="http://www.w3.org/2000/svg" xmlns:xlink="http://www.w3.org/1999/xlink" x="0px" y="0px"
	 width="34.568px" height="16.974px" viewBox="0 0 34.568 16.974" enable-background="new 0 0 34.568 16.974" xml:space="preserve">
<g>
	<path d="M24.569,5.381c-0.036-0.111-0.139-0.186-0.255-0.186h-5.289l-1.634-5.03c-0.072-0.221-0.438-0.221-0.51,0l-1.634,5.03
		H9.958c-0.116,0-0.219,0.075-0.255,0.186C9.667,5.491,9.707,5.612,9.8,5.68l4.279,3.109l-1.634,5.03
		c-0.036,0.11,0.003,0.231,0.097,0.299c0.094,0.068,0.221,0.068,0.315,0l4.279-3.108l4.279,3.108
		c0.047,0.034,0.102,0.052,0.157,0.052c0.056,0,0.111-0.018,0.158-0.052c0.094-0.068,0.133-0.189,0.097-0.299l-1.634-5.03
		l4.279-3.109C24.565,5.612,24.604,5.491,24.569,5.381z"/>
</g>
<g>
	<path d="M34.566,12.761c0.01-0.074-0.027-0.146-0.094-0.178l-3.034-1.494l0.483-3.347c0.021-0.147-0.188-0.25-0.292-0.144
		l-2.358,2.424l-3.034-1.494c-0.067-0.033-0.146-0.019-0.199,0.035c-0.051,0.053-0.063,0.133-0.028,0.199l1.576,2.992l-2.358,2.424
		c-0.052,0.053-0.064,0.133-0.029,0.199c0.035,0.066,0.107,0.102,0.181,0.089l3.332-0.575l1.577,2.992
		c0.018,0.033,0.044,0.059,0.076,0.074c0.032,0.016,0.068,0.021,0.105,0.015c0.073-0.012,0.129-0.07,0.14-0.144l0.483-3.347
		l3.333-0.575C34.499,12.893,34.555,12.834,34.566,12.761z"/>
</g>
<g>
	<path d="M8.839,8.876c-0.048-0.057-0.126-0.078-0.195-0.05l-3.145,1.245L3.343,7.466C3.248,7.352,3.031,7.438,3.04,7.586
		l0.213,3.375l-3.145,1.245C0.039,12.234-0.004,12.302,0,12.377c0.004,0.073,0.057,0.136,0.128,0.155l3.275,0.841l0.213,3.375
		c0.004,0.075,0.056,0.137,0.128,0.155c0.073,0.019,0.147-0.011,0.188-0.074l1.812-2.855l3.276,0.84
		c0.036,0.009,0.073,0.006,0.105-0.006c0.034-0.014,0.062-0.037,0.082-0.068c0.04-0.062,0.035-0.143-0.013-0.201L7.04,11.933
		l1.812-2.855C8.891,9.015,8.886,8.934,8.839,8.876z"/>
</g>
</svg>
