<?xml version="1.0" encoding="utf-8"?>
<!-- Generator: Adobe Illustrator 16.0.0, SVG Export Plug-In . SVG Version: 6.00 Build 0)  -->
<!DOCTYPE svg PUBLIC "-//W3C//DTD SVG 1.1//EN" "http://www.w3.org/Graphics/SVG/1.1/DTD/svg11.dtd">
<svg version="1.1" id="Layer_1" xmlns="http://www.w3.org/2000/svg" xmlns:xlink="http://www.w3.org/1999/xlink" x="0px" y="0px"
	 width="17.582px" height="14.29px" viewBox="0 0 17.582 14.29" enable-background="new 0 0 17.582 14.29" xml:space="preserve">
<path fill="#2CAAE1" d="M17.582,1.692c-0.648,0.286-1.341,0.48-2.071,0.567c0.744-0.447,1.315-1.154,1.587-1.996
	c-0.7,0.414-1.47,0.713-2.292,0.876C14.149,0.438,13.211,0,12.173,0c-1.992,0-3.607,1.615-3.607,3.606
	c0,0.283,0.03,0.559,0.094,0.824c-2.997-0.152-5.653-1.587-7.436-3.77c-0.31,0.532-0.488,1.152-0.488,1.813
	c0,1.252,0.639,2.354,1.603,3.002C1.751,5.458,1.191,5.296,0.707,5.025c0,0.016,0,0.031,0,0.045c0,1.747,1.243,3.206,2.893,3.538
	C3.298,8.689,2.98,8.734,2.65,8.734c-0.231,0-0.458-0.022-0.68-0.065c0.459,1.434,1.791,2.477,3.371,2.506
	c-1.234,0.967-2.791,1.543-4.482,1.543c-0.289,0-0.579-0.017-0.859-0.05c1.596,1.023,3.492,1.621,5.53,1.621
	c6.635,0,10.262-5.498,10.262-10.264c0-0.156-0.002-0.311-0.009-0.466C16.486,3.051,17.098,2.416,17.582,1.692z"/>
</svg>
